<svg width="800" height="228" viewBox="0 0 800 228" fill="none" xmlns="http://www.w3.org/2000/svg">
<g clip-path="url(#clip0_481_3869)">
<path d="M38.6888 64.1588L128.486 26.3718C129.178 26.0535 129.501 25.2805 129.224 24.5984L119.114 1.31693C118.79 0.634855 118.006 0.316553 117.313 0.589383L27.5162 38.4218C10.4801 45.6064 0 61.385 0 79.21V220.309C0 221.036 0.600185 221.673 1.38504 221.673H27.0545C27.7932 221.673 28.4395 221.082 28.4395 220.309V120.498C30.2401 121.18 32.133 121.817 34.072 122.317L116.066 143.28C116.805 143.461 117.544 143.052 117.729 142.325L124.192 117.861C124.377 117.133 123.961 116.406 123.223 116.224L41.2281 95.2615C30.2862 92.4877 28.7165 83.3024 28.5319 80.5286C28.301 77.8003 28.4395 68.5241 38.735 64.1588H38.6888Z" fill="#0000FF"/>
<path d="M721.284 72.8C677.886 72.8 642.567 107.586 642.567 150.329C642.567 193.073 677.886 227.859 721.284 227.859C764.681 227.859 800 193.073 800 150.329C800 107.586 764.681 72.8 721.284 72.8V72.8ZM721.284 199.848C693.537 199.848 671.006 177.612 671.006 150.329C671.006 123.046 693.537 100.811 721.284 100.811C749.031 100.811 771.561 123.046 771.561 150.329C771.561 177.612 748.984 199.848 721.284 199.848V199.848Z" fill="#0000FF"/>
<path d="M214.866 72.8C171.468 72.8 136.15 107.586 136.15 150.329C136.15 193.073 171.468 227.859 214.866 227.859C258.264 227.859 293.583 193.073 293.583 150.329C293.583 107.586 258.264 72.8 214.866 72.8V72.8ZM214.866 199.848C187.119 199.848 164.589 177.612 164.589 150.329C164.589 123.046 187.165 100.811 214.866 100.811C242.567 100.811 265.143 123.046 265.143 150.329C265.143 177.612 242.567 199.848 214.866 199.848Z" fill="#0000FF"/>
<path d="M607.064 81.9398C596.999 74.437 584.534 72.027 572.761 75.2555L535.734 85.4411C532.041 86.4415 528.624 87.9421 525.439 89.8519C523.176 86.8962 520.499 84.2134 517.405 81.9398C507.387 74.437 494.875 72.027 483.102 75.2555L446.076 85.4411C428.07 90.3975 415.466 106.858 415.466 125.456V220.31C415.466 221.038 416.066 221.674 416.851 221.674H442.521C443.259 221.674 443.906 221.083 443.906 220.31V125.502C443.906 119.408 447.969 113.997 453.74 112.406L490.813 102.175C495.245 100.947 498.892 103.175 500.277 104.221C503.324 106.495 505.171 109.95 505.171 113.406V220.31C505.171 221.038 505.771 221.674 506.556 221.674H532.225C532.964 221.674 533.61 221.083 533.61 220.31V125.502C533.61 119.408 537.673 113.997 543.444 112.406L580.517 102.175C584.949 100.947 588.596 103.175 589.982 104.221C593.029 106.495 594.875 109.95 594.875 113.406V220.31C594.875 221.038 595.475 221.674 596.26 221.674H621.93C622.715 221.674 623.315 221.083 623.315 220.31V113.452C623.315 101.265 617.267 89.4881 607.156 81.9398H607.064Z" fill="#0000FF"/>
<path d="M343.675 85.4411C325.669 90.3975 313.066 106.858 313.066 125.456V220.31C313.066 221.038 313.666 221.674 314.451 221.674H340.12C340.859 221.674 341.505 221.083 341.505 220.31V125.502C341.505 119.408 345.568 113.997 351.339 112.406L403.924 97.9003C404.663 97.7184 405.078 96.9454 404.894 96.2179L397.969 71.8905C397.784 71.163 396.999 70.7537 396.26 70.9356L343.675 85.4411V85.4411Z" fill="#0000FF"/>
</g>
<defs>
<clipPath id="clip0_481_3869">
<rect width="800" height="227.358" fill="white" transform="translate(0 0.5)"/>
</clipPath>
</defs>
</svg>
