<svg width="92" height="99" viewBox="0 0 92 99" fill="none" xmlns="http://www.w3.org/2000/svg">
<path d="M45.9397 2.68986C45.8511 2.68986 45.7604 2.68356 45.6761 2.66256C45.5875 2.64576 45.5032 2.62266 45.423 2.58906C45.3408 2.55547 45.2606 2.51137 45.1889 2.46518C45.1151 2.41478 45.0434 2.36019 44.9823 2.29719C44.9169 2.2363 44.8642 2.1649 44.8135 2.09141C44.765 2.02002 44.7229 1.94022 44.6891 1.85833C44.6554 1.77854 44.6322 1.69245 44.6153 1.60635C44.5942 1.52236 44.5879 1.43207 44.5879 1.34388C44.5879 1.25569 44.5942 1.16959 44.6153 1.0814C44.6322 0.997409 44.6554 0.909217 44.6891 0.829424C44.7229 0.747532 44.7671 0.671938 44.8135 0.596345C44.8642 0.522852 44.919 0.455658 44.9823 0.394764C45.0434 0.32967 45.1151 0.272975 45.1889 0.226779C45.2606 0.176384 45.3408 0.136487 45.423 0.10289C45.5032 0.0692935 45.5875 0.0419962 45.6761 0.0251977C45.849 -0.00839924 46.0283 -0.00839924 46.2033 0.0251977C46.2877 0.0419962 46.3762 0.0692935 46.4564 0.10289C46.5386 0.136487 46.6145 0.176384 46.6905 0.226779C46.7643 0.272975 46.8318 0.33177 46.8971 0.394764C46.9583 0.455658 47.0152 0.522852 47.0637 0.596345C47.1144 0.669839 47.1544 0.747532 47.1882 0.829424C47.2219 0.913417 47.2493 0.997409 47.2662 1.0814C47.2831 1.16959 47.2936 1.25569 47.2936 1.34388C47.2936 1.43207 47.2831 1.52236 47.2662 1.60635C47.2493 1.69455 47.2219 1.77854 47.1882 1.85833C47.1544 1.94022 47.1144 2.02002 47.0637 2.09141C47.0173 2.1649 46.9583 2.2363 46.8971 2.29719C46.6441 2.54917 46.2961 2.68986 45.9397 2.68986Z" fill="#FFF7E8"/>
<path d="M40.7376 97.1468C40.0501 96.8571 39.7295 96.0612 40.0248 95.3788C40.3158 94.6943 41.1109 94.3751 41.8005 94.6691C42.488 94.9588 42.8085 95.7505 42.5133 96.4371C42.294 96.9494 41.7921 97.256 41.269 97.256C41.094 97.2539 40.9148 97.2203 40.7376 97.1468ZM36.079 95.173C35.3915 94.879 35.071 94.0916 35.3641 93.405C35.6552 92.7204 36.4502 92.4013 37.1398 92.6931C37.8273 92.9829 38.1437 93.7745 37.8547 94.4612C37.6354 94.9735 37.1335 95.2801 36.6105 95.2801C36.4355 95.2801 36.252 95.2465 36.079 95.173ZM31.4205 93.1992C30.733 92.9052 30.4124 92.1178 30.7077 91.4312C30.9987 90.7466 31.7938 90.4316 32.4834 90.7214C33.1709 91.0112 33.4914 91.8028 33.1962 92.4895C32.9769 93.0018 32.4749 93.3084 31.9519 93.3084C31.7769 93.3063 31.5934 93.2727 31.4205 93.1992ZM26.7619 91.2254C26.0744 90.9356 25.7539 90.144 26.047 89.4573C26.338 88.7728 27.1331 88.4557 27.8206 88.7455C28.5102 89.0353 28.8287 89.8269 28.5376 90.5135C28.3183 91.0259 27.8164 91.3325 27.2934 91.3325C27.1141 91.3325 26.9349 91.2989 26.7619 91.2254ZM22.1034 89.2515C21.4159 88.9618 21.0953 88.1702 21.3906 87.4835C21.6816 86.799 22.4766 86.4798 23.1641 86.7717C23.8516 87.0656 24.1722 87.8531 23.8812 88.5397C23.6618 89.0521 23.1599 89.3586 22.6369 89.3586C22.4556 89.3586 22.2763 89.325 22.1034 89.2515ZM17.4448 87.2756C16.7573 86.9817 16.4368 86.1942 16.7299 85.5076C17.0209 84.8231 17.816 84.5081 18.5035 84.7979C19.191 85.0876 19.5115 85.8793 19.2205 86.5659C19.0012 87.0782 18.4993 87.3848 17.9763 87.3848C17.797 87.3848 17.6177 87.3512 17.4448 87.2756ZM12.7863 85.3018C12.0966 85.012 11.7782 84.2204 12.0692 83.5338C12.3624 82.8492 13.1595 82.5301 13.8449 82.8219C14.5324 83.1117 14.853 83.9033 14.5577 84.59C14.3405 85.1023 13.8407 85.4089 13.3135 85.4089C13.1384 85.411 12.9592 85.3774 12.7863 85.3018ZM8.02225 83.0991C7.38326 82.7106 7.1808 81.8833 7.56884 81.2471C7.95898 80.6108 8.78989 80.4114 9.42678 80.7956C10.0658 81.182 10.2682 82.0114 9.88441 82.6477C9.62712 83.0655 9.18426 83.2944 8.72452 83.2944C8.48621 83.2944 8.24158 83.2314 8.02225 83.0991ZM3.86772 79.5357C3.39111 78.9625 3.46914 78.1142 4.04276 77.6396C4.61427 77.1609 5.47048 77.2385 5.94709 77.8118C6.42371 78.385 6.34568 79.2334 5.77417 79.7079C5.5211 79.9158 5.2132 80.0208 4.90741 80.0208C4.52148 80.0208 4.13555 79.8549 3.86772 79.5357ZM1.09663 74.8238C0.828797 74.1308 1.18098 73.3518 1.87903 73.0851C2.57497 72.8184 3.36158 73.167 3.62731 73.8641C3.89092 74.5571 3.54295 75.3361 2.8449 75.6028C2.68674 75.6637 2.52013 75.6931 2.36197 75.6931C1.81787 75.691 1.3033 75.3613 1.09663 74.8238ZM0.0105443 69.4692C-0.0168714 68.728 0.569403 68.1023 1.31595 68.0771C2.06039 68.0498 2.68885 68.6335 2.71415 69.3769C2.74157 70.1181 2.15529 70.7417 1.40874 70.769C1.39609 70.769 1.37922 70.769 1.36235 70.769C0.63267 70.7711 0.0358511 70.1979 0.0105443 69.4692ZM0 64.3835C0 63.6381 0.605254 63.0354 1.35391 63.0354C2.09835 63.0354 2.70361 63.6381 2.70361 64.3835C2.70361 65.1289 2.09835 65.7316 1.35391 65.7316C0.607363 65.7316 0 65.1268 0 64.3835ZM0 59.3398C0 58.5943 0.605254 57.9917 1.35391 57.9917C2.09835 57.9917 2.70361 58.5943 2.70361 59.3398C2.70361 60.0852 2.09835 60.6878 1.35391 60.6878C0.607363 60.6878 0 60.0852 0 59.3398ZM0 54.3023C0 53.5569 0.605254 52.9543 1.35391 52.9543C2.09835 52.9543 2.70361 53.5569 2.70361 54.3023C2.70361 55.0478 2.09835 55.6504 1.35391 55.6504C0.607363 55.6483 0 55.0457 0 54.3023ZM0 49.2586C0 48.5132 0.605254 47.9105 1.35391 47.9105C2.09835 47.9105 2.70361 48.5132 2.70361 49.2586C2.70361 50.004 2.09835 50.6067 1.35391 50.6067C0.607363 50.6067 0 50.004 0 49.2586ZM0 44.219C0 43.4715 0.605254 42.8689 1.35391 42.8689C2.09835 42.8689 2.70361 43.4715 2.70361 44.219C2.70361 44.9603 2.09835 45.5671 1.35391 45.5671C0.607363 45.5671 0 44.9603 0 44.219ZM0 39.1753C0 38.4299 0.605254 37.8272 1.35391 37.8272C2.09835 37.8272 2.70361 38.4299 2.70361 39.1753C2.70361 39.9207 2.09835 40.5234 1.35391 40.5234C0.607363 40.5234 0 39.9207 0 39.1753ZM0 34.1358C0 33.3882 0.605254 32.7856 1.35391 32.7856C2.09835 32.7856 2.70361 33.3882 2.70361 34.1358C2.70361 34.877 2.09835 35.4796 1.35391 35.4796C0.607363 35.4817 0 34.877 0 34.1358ZM1.31384 30.4422C0.569403 30.4149 -0.0168714 29.7892 0.0105443 29.0479C0.0337422 28.3025 0.664304 27.7208 1.41085 27.7481C2.1553 27.7754 2.73946 28.3991 2.71415 29.1424C2.69096 29.871 2.08781 30.4422 1.36446 30.4422C1.34759 30.4422 1.33072 30.4422 1.31384 30.4422ZM1.88325 25.4363C1.1852 25.1696 0.837233 24.3884 1.10085 23.6955C1.36868 23.0026 2.15319 22.654 2.85123 22.9207C3.54717 23.1832 3.89936 23.9643 3.63363 24.6593C3.42696 25.1948 2.91239 25.5244 2.36829 25.5244C2.2038 25.5244 2.04141 25.4971 1.88325 25.4363ZM4.04698 20.8839C3.47547 20.4051 3.39744 19.5568 3.87827 18.9835C4.35488 18.4103 5.20687 18.3368 5.7826 18.8114C6.35833 19.2901 6.43214 20.1384 5.95553 20.7117C5.6877 21.0288 5.30177 21.1925 4.91584 21.1925C4.60794 21.1946 4.30215 21.0938 4.04698 20.8839ZM7.57938 17.2743C7.18924 16.6381 7.39591 15.8086 8.03701 15.4244C8.67601 15.038 9.50481 15.2396 9.89495 15.88C10.2851 16.5142 10.0784 17.3415 9.44154 17.73C9.22222 17.8622 8.97758 17.9252 8.73717 17.9252C8.27954 17.9231 7.83245 17.6922 7.57938 17.2743ZM12.0819 14.9897C11.7909 14.3052 12.1093 13.5114 12.7947 13.2217C13.4843 12.9319 14.2772 13.249 14.5704 13.9356C14.8656 14.6201 14.543 15.4118 13.8576 15.7015C13.6846 15.775 13.5012 15.8086 13.3261 15.8086C12.8031 15.8086 12.3033 15.5021 12.0819 14.9897ZM16.7404 13.0159C16.4494 12.3313 16.7679 11.5397 17.4554 11.2478C18.145 10.9581 18.94 11.2751 19.2311 11.9618C19.5263 12.6463 19.2036 13.4379 18.5161 13.7277C18.3432 13.8012 18.1639 13.8348 17.9847 13.8348C17.4617 13.8348 16.9619 13.5282 16.7404 13.0159ZM21.399 11.0421C21.108 10.3575 21.4264 9.5659 22.116 9.27402C22.8035 8.98425 23.5986 9.30132 23.8896 9.98796C24.1849 10.6725 23.8622 11.4641 23.1747 11.7539C23.0018 11.8274 22.8204 11.861 22.6432 11.861C22.1202 11.861 21.6204 11.5544 21.399 11.0421ZM26.0576 9.06824C25.7665 8.3837 26.085 7.59207 26.7746 7.3002C27.4621 7.01043 28.2571 7.3275 28.5482 8.01414C28.8413 8.69867 28.5207 9.4903 27.8332 9.78008C27.6603 9.85357 27.4811 9.88717 27.306 9.88717C26.7788 9.88717 26.279 9.5806 26.0576 9.06824ZM30.7161 7.09442C30.4251 6.40988 30.7477 5.61826 31.4331 5.32638C32.1206 5.03661 32.9157 5.35368 33.2067 6.04032C33.502 6.72485 33.1793 7.51648 32.4918 7.80626C32.3189 7.87975 32.1396 7.91335 31.9646 7.91335C31.4374 7.91335 30.9375 7.60677 30.7161 7.09442ZM35.3768 5.1206C35.0858 4.43606 35.4063 3.64443 36.0938 3.35256C36.7813 3.06279 37.5764 3.37986 37.8674 4.0665C38.1605 4.75103 37.84 5.54266 37.1525 5.83244C36.9795 5.90593 36.8003 5.93953 36.6252 5.93953C36.0959 5.93743 35.5961 5.63085 35.3768 5.1206ZM40.0374 3.14678C39.7422 2.46224 40.0649 1.67061 40.7503 1.37874C41.4378 1.08897 42.2328 1.40604 42.5238 2.09268C42.8191 2.77721 42.5006 3.56884 41.8089 3.85861C41.636 3.93211 41.4567 3.96571 41.2817 3.96571C40.7545 3.96361 40.2547 3.65703 40.0374 3.14678Z" fill="#FFF7E8"/>
<path d="M45.9397 98.884C45.8511 98.884 45.7604 98.8735 45.6761 98.8567C45.5875 98.8399 45.5032 98.8126 45.423 98.779C45.3408 98.7454 45.2606 98.7013 45.1889 98.6551C45.1151 98.6047 45.0434 98.5501 44.9823 98.4871C44.9169 98.4262 44.8642 98.3548 44.8135 98.2813C44.765 98.2099 44.7229 98.1322 44.6891 98.0482C44.6554 97.9663 44.6322 97.8823 44.6153 97.7984C44.5942 97.7102 44.5879 97.6199 44.5879 97.5317C44.5879 97.4435 44.5942 97.3574 44.6153 97.2692C44.6322 97.1852 44.6554 97.097 44.6891 97.0172C44.7229 96.9374 44.7671 96.8597 44.8135 96.7841C44.8642 96.7106 44.919 96.6435 44.9823 96.5826C45.0434 96.5196 45.1151 96.4608 45.1889 96.4146C45.2606 96.3642 45.3408 96.3243 45.423 96.2907C45.5032 96.2571 45.5875 96.2298 45.6761 96.213C46.1168 96.1248 46.5829 96.2697 46.8971 96.5826C46.9583 96.6435 47.0152 96.7106 47.0637 96.7841C47.1144 96.8576 47.1544 96.9353 47.1882 97.0172C47.2219 97.0991 47.2493 97.1852 47.2662 97.2692C47.2831 97.3574 47.2936 97.4456 47.2936 97.5317C47.2936 97.6199 47.2831 97.7102 47.2662 97.7984C47.2493 97.8823 47.2219 97.9663 47.1882 98.0482C47.1544 98.1322 47.1144 98.2099 47.0637 98.2813C47.0173 98.3548 46.9583 98.4262 46.8971 98.4871C46.6441 98.7391 46.2961 98.884 45.9397 98.884Z" fill="#FFF7E8"/>
<path d="M49.3537 96.4389C49.0585 95.7544 49.3811 94.9628 50.0665 94.673C50.754 94.379 51.5491 94.7003 51.8422 95.3848C52.1332 96.0694 51.8148 96.861 51.1294 97.1529C50.9523 97.2243 50.773 97.26 50.598 97.26C50.0707 97.26 49.573 96.9513 49.3537 96.4389ZM54.0123 94.4651C53.717 93.7806 54.0397 92.989 54.7272 92.6971C55.4147 92.4073 56.2097 92.7286 56.5029 93.411C56.7939 94.0956 56.4755 94.8872 55.788 95.177C55.6129 95.2505 55.4337 95.284 55.2565 95.284C54.7293 95.284 54.2337 94.9775 54.0123 94.4651ZM58.6708 92.4913C58.3756 91.8068 58.6982 91.0151 59.3836 90.7254C60.0711 90.4314 60.8683 90.7527 61.1593 91.4372C61.4504 92.1217 61.1319 92.9134 60.4423 93.2052C60.2694 93.2766 60.0901 93.3123 59.9151 93.3123C59.3921 93.3123 58.8923 93.0037 58.6708 92.4913ZM63.3294 90.5175C63.0341 89.8329 63.3568 89.0413 64.0443 88.7515C64.7339 88.4597 65.529 88.7788 65.82 89.4634C66.1152 90.1479 65.7926 90.9395 65.1051 91.2293C64.93 91.3028 64.7508 91.3364 64.5736 91.3364C64.0506 91.3343 63.5508 91.0298 63.3294 90.5175ZM67.9879 88.5437C67.6969 87.8591 68.0154 87.0675 68.7008 86.7756C69.3904 86.4858 70.1854 86.805 70.4764 87.4896C70.7717 88.1741 70.449 88.9657 69.7636 89.2576C69.5907 89.329 69.4114 89.3647 69.2322 89.3647C68.7092 89.3647 68.2094 89.0539 67.9879 88.5437ZM72.6465 86.5698C72.3555 85.8853 72.6739 85.0937 73.3614 84.8039C74.051 84.5099 74.8461 84.8312 75.1371 85.5157C75.4324 86.2003 75.1097 86.9919 74.4222 87.2838C74.2493 87.3552 74.07 87.3909 73.895 87.3909C73.3677 87.3909 72.8679 87.0801 72.6465 86.5698ZM77.3051 84.5939C77.014 83.9094 77.3325 83.1178 78.0221 82.8259C78.7096 82.5361 79.5046 82.8553 79.7957 83.5398C80.0909 84.2244 79.7683 85.016 79.0808 85.3079C78.9078 85.3792 78.7286 85.4149 78.5493 85.4149C78.0263 85.417 77.5265 85.1063 77.3051 84.5939ZM81.9847 82.6537C81.5967 82.0133 81.8012 81.1838 82.4423 80.8017C83.0813 80.4132 83.9144 80.619 84.3003 81.2573C84.6883 81.8936 84.4859 82.7188 83.8469 83.1073C83.6275 83.2395 83.3829 83.3025 83.1467 83.3025C82.6849 83.3004 82.2378 83.0695 81.9847 82.6537ZM86.095 79.714C85.5234 79.2394 85.4454 78.3911 85.922 77.8178C86.4029 77.2488 87.2548 77.1711 87.8306 77.6457C88.4021 78.1244 88.4801 78.9727 88.0035 79.546C87.7336 79.8651 87.3497 80.0289 86.9617 80.0289C86.658 80.0268 86.3501 79.926 86.095 79.714ZM89.0284 75.6109C88.3325 75.3443 87.9824 74.5673 88.2502 73.8723C88.5181 73.1752 89.2984 72.8287 89.9964 73.0933C90.6924 73.3599 91.0445 74.1369 90.7788 74.834C90.5721 75.3695 90.0576 75.6991 89.5135 75.6991C89.3532 75.7012 89.1866 75.6718 89.0284 75.6109ZM90.4709 70.7835C89.7223 70.7562 89.1381 70.1304 89.1655 69.3892C89.1929 68.6438 89.8193 68.0621 90.5658 68.0894C91.3145 68.1167 91.8986 68.7404 91.8712 69.4837C91.8438 70.2102 91.2449 70.7835 90.5173 70.7835C90.5004 70.7835 90.4878 70.7835 90.4709 70.7835ZM89.1739 64.3938C89.1739 63.6525 89.7792 63.0499 90.5279 63.0499C91.2765 63.0499 91.8818 63.6525 91.8818 64.3938C91.8818 65.1392 91.2765 65.7418 90.5279 65.7418C89.7792 65.7418 89.1739 65.1371 89.1739 64.3938ZM89.1739 59.3542C89.1739 58.6088 89.7792 58.0061 90.5279 58.0061C91.2765 58.0061 91.8818 58.6088 91.8818 59.3542C91.8818 60.0996 91.2765 60.7023 90.5279 60.7023C89.7792 60.7023 89.1739 60.0975 89.1739 59.3542ZM89.1739 54.3105C89.1739 53.565 89.7792 52.9624 90.5279 52.9624C91.2765 52.9624 91.8818 53.565 91.8818 54.3105C91.8818 55.0559 91.2765 55.6585 90.5279 55.6585C89.7792 55.6585 89.1739 55.0559 89.1739 54.3105ZM89.1739 49.2709C89.1739 48.5255 89.7792 47.9229 90.5279 47.9229C91.2765 47.9229 91.8818 48.5255 91.8818 49.2709C91.8818 50.0164 91.2765 50.619 90.5279 50.619C89.7792 50.619 89.1739 50.0164 89.1739 49.2709ZM89.1739 44.2293C89.1739 43.4839 89.7792 42.8812 90.5279 42.8812C91.2765 42.8812 91.8818 43.4839 91.8818 44.2293C91.8818 44.9747 91.2765 45.5774 90.5279 45.5774C89.7792 45.5753 89.1739 44.9726 89.1739 44.2293ZM89.1739 39.1898C89.1739 38.4422 89.7792 37.8417 90.5279 37.8417C91.2765 37.8417 91.8818 38.4422 91.8818 39.1898C91.8818 39.9352 91.2765 40.5378 90.5279 40.5378C89.7792 40.5378 89.1739 39.9331 89.1739 39.1898ZM89.1739 34.146C89.1739 33.4006 89.7792 32.7979 90.5279 32.7979C91.2765 32.7979 91.8818 33.4006 91.8818 34.146C91.8818 34.8914 91.2765 35.4941 90.5279 35.4941C89.7792 35.4941 89.1739 34.8914 89.1739 34.146ZM89.1634 29.1506C89.1402 28.4051 89.7244 27.7836 90.4688 27.7584C91.2175 27.7311 91.8417 28.3148 91.8691 29.0582V29.054C91.8965 29.7994 91.3103 30.4251 90.5637 30.4482C90.5468 30.4482 90.5342 30.4524 90.5173 30.4524C89.7897 30.4545 89.1908 29.8813 89.1634 29.1506ZM88.2545 24.6675C87.9866 23.9724 88.3367 23.1913 89.0369 22.9288C89.7328 22.6622 90.5152 23.0086 90.783 23.7079C91.0509 24.4008 90.7029 25.1798 90.0006 25.4465C89.8425 25.5074 89.6801 25.5347 89.5198 25.5347C88.9736 25.5326 88.4611 25.2029 88.2545 24.6675ZM85.9326 20.7198C85.4517 20.1466 85.5298 19.2983 86.1055 18.8237C86.6812 18.3449 87.5332 18.4226 88.0098 18.9959C88.4907 19.5691 88.4084 20.4175 87.8369 20.892C87.5838 21.1041 87.2759 21.2049 86.9701 21.2049C86.5821 21.2049 86.2004 21.039 85.9326 20.7198ZM82.4529 17.7339C81.8139 17.3475 81.6114 16.5181 81.9995 15.8819C82.3854 15.2456 83.2205 15.044 83.8595 15.4304C84.4964 15.8168 84.6989 16.6462 84.3129 17.2824C84.0556 17.6961 83.6086 17.9292 83.153 17.9292C82.9126 17.9292 82.6722 17.8662 82.4529 17.7339ZM78.0368 15.7076C77.3472 15.4136 77.0246 14.622 77.3198 13.9395C77.6151 13.255 78.4059 12.9358 79.0955 13.2277C79.783 13.5175 80.1036 14.3091 79.8104 14.9937C79.5932 15.5081 79.0934 15.8147 78.5662 15.8147C78.389 15.8147 78.2098 15.7811 78.0368 15.7076ZM73.3741 13.7338C72.6866 13.4398 72.366 12.6482 72.6592 11.9657C72.9502 11.2812 73.7452 10.962 74.4349 11.256C75.1224 11.5458 75.4387 12.3374 75.1498 13.024C74.9304 13.5364 74.4285 13.843 73.9055 13.843C73.7305 13.8409 73.5512 13.8073 73.3741 13.7338ZM68.7155 11.7599C68.028 11.466 67.7075 10.6743 68.0006 9.99191C68.2916 9.30737 69.0867 8.9882 69.7763 9.28217C70.4638 9.57194 70.7822 10.3636 70.4912 11.0502C70.2719 11.5626 69.77 11.8691 69.247 11.8691C69.0719 11.867 68.8927 11.8334 68.7155 11.7599ZM64.057 9.78403C63.3695 9.49005 63.0489 8.69842 63.342 8.01599C63.6331 7.33145 64.4281 7.01228 65.1156 7.30415C65.8052 7.59392 66.1237 8.38555 65.8326 9.07219C65.6133 9.58454 65.1114 9.89112 64.5884 9.89112C64.4091 9.89322 64.2299 9.85962 64.057 9.78403ZM59.3984 7.8102C58.7109 7.51623 58.3903 6.7246 58.6856 6.04217C58.9766 5.35763 59.7717 5.03846 60.4592 5.33243C61.1488 5.6222 61.4672 6.41383 61.1762 7.10047C60.9569 7.61282 60.455 7.9194 59.9277 7.9194C59.7506 7.9194 59.5713 7.8858 59.3984 7.8102ZM54.7398 5.83638C54.0523 5.54241 53.7318 4.75498 54.0249 4.06834C54.316 3.38381 55.111 3.06464 55.7985 3.35861C56.4881 3.64838 56.8066 4.44001 56.5155 5.12665C56.2962 5.639 55.7943 5.94557 55.2713 5.94557C55.092 5.94557 54.9128 5.91198 54.7398 5.83638ZM50.0813 3.86256C49.3938 3.56859 49.0732 2.78116 49.3643 2.09452C49.6595 1.40999 50.4546 1.09082 51.14 1.38479C51.8275 1.67456 52.148 2.46619 51.8549 3.15283C51.6376 3.66518 51.1378 3.97175 50.6106 3.97175C50.4335 3.97175 50.2542 3.93606 50.0813 3.86256Z" fill="#FFF7E8"/>
<path d="M15.469 43.1043L23.0434 39.8463C23.1022 39.8206 23.1301 39.7521 23.1046 39.6929L22.2537 37.6882C22.2281 37.6291 22.1601 37.601 22.1013 37.6267L14.5261 40.8848C13.0881 41.5045 12.2 42.8646 12.2031 44.4021V56.5663C12.2031 56.631 12.255 56.6831 12.3192 56.6831H14.4851C14.5493 56.6831 14.6011 56.631 14.6011 56.5663V47.963C14.7543 48.0238 14.9121 48.0767 15.076 48.1195L21.993 49.928C22.0549 49.9443 22.1183 49.907 22.1345 49.8447L22.6791 47.7349C22.6954 47.6726 22.6582 47.6088 22.5963 47.5925L15.6786 45.784C14.7542 45.5434 14.6243 44.7517 14.6065 44.5142C14.5872 44.2783 14.5972 43.4796 15.469 43.1043Z" fill="#FFF7E8"/>
<path d="M73.0541 43.8516C69.3929 43.8516 66.4141 46.8496 66.4141 50.5343C66.4141 54.219 69.3929 57.217 73.0541 57.217C76.7152 57.217 79.6941 54.219 79.6941 50.5343C79.6941 46.8496 76.7152 43.8516 73.0541 43.8516ZM73.0541 54.8044C70.7149 54.8044 68.812 52.8893 68.812 50.5351C68.812 48.1809 70.7149 46.2657 73.0541 46.2657C75.3933 46.2657 77.2961 48.1809 77.2961 50.5351C77.2961 52.8885 75.3933 54.8044 73.0541 54.8044Z" fill="#FFF7E8"/>
<path d="M30.3295 43.8516C26.6683 43.8516 23.6895 46.8496 23.6895 50.5343C23.6895 54.219 26.6683 57.217 30.3295 57.217C33.9906 57.217 36.9695 54.219 36.9695 50.5343C36.9695 46.8496 33.9914 43.8516 30.3295 43.8516ZM30.3295 54.8044C27.9903 54.8044 26.0874 52.8893 26.0874 50.5351C26.0874 48.1809 27.9903 46.2657 30.3295 46.2657C32.6686 46.2657 34.5715 48.1809 34.5715 50.5351C34.5715 52.8885 32.6686 54.8044 30.3295 54.8044Z" fill="#FFF7E8"/>
<path d="M63.4165 44.6389C62.5695 43.9928 61.5144 43.7826 60.5235 44.0628L57.3984 44.9425C57.0883 45.0297 56.7974 45.1582 56.5305 45.3217C56.3395 45.0663 56.1128 44.8359 55.8545 44.6389C55.0074 43.9928 53.9523 43.7826 52.9614 44.0628L49.8364 44.9425C48.3171 45.3707 47.2559 46.7899 47.2559 48.3937V56.5704C47.2559 56.635 47.3077 56.6872 47.3719 56.6872H49.5378C49.602 56.6872 49.6538 56.635 49.6538 56.5704V48.3945C49.6538 47.8682 49.9949 47.4042 50.4823 47.2672L53.6097 46.3867C53.9833 46.2816 54.2912 46.4746 54.4064 46.5626C54.6648 46.7596 54.8187 47.0554 54.8187 47.3551V48.3945V56.5704C54.8187 56.635 54.8705 56.6872 54.9347 56.6872H57.1006C57.1648 56.6872 57.2167 56.635 57.2167 56.5704V48.3945C57.2167 47.8682 57.5578 47.4042 58.0451 47.2672L61.1717 46.3867C61.5454 46.2816 61.8532 46.4746 61.9685 46.5626C62.2268 46.7596 62.3808 47.0554 62.3808 47.3551V56.5712C62.3808 56.6358 62.4326 56.6879 62.4968 56.6879H64.6627C64.7269 56.6879 64.7787 56.6358 64.7787 56.5712V47.3551C64.7787 46.3049 64.2698 45.289 63.4165 44.6389Z" fill="#FFF7E8"/>
<path d="M41.1957 44.9413C39.6765 45.3695 38.6152 46.7887 38.6152 48.3924V56.5691C38.6152 56.6337 38.6671 56.6859 38.7313 56.6859H40.8972C40.9614 56.6859 41.0132 56.6337 41.0132 56.5691V48.3924C41.0132 47.8662 41.3543 47.4022 41.8416 47.2651L46.2771 46.0156C46.339 45.9985 46.3746 45.9339 46.3575 45.8716L45.7743 43.7727C45.7573 43.7105 45.6931 43.6746 45.6312 43.6918L41.1957 44.9413Z" fill="#FFF7E8"/>
<path d="M39.2875 23.4702H40.3395C40.2916 22.3909 40.973 21.6713 42.0489 21.6713C43.0052 21.6713 43.7105 22.256 43.7105 23.1554C43.7105 23.8412 43.3757 24.3809 42.4792 24.8081L41.2001 25.4265C40.3395 25.8313 39.168 26.697 39.168 28.1023L39.1799 28.7882H44.7983V27.9225H40.1601C40.1601 27.1579 40.9371 26.5621 41.6066 26.236L42.802 25.6626C44.093 25.0667 44.7624 24.201 44.7624 23.1779C44.7624 21.7501 43.6268 20.8281 42.0489 20.8281C40.3155 20.8281 39.2158 21.8625 39.2875 23.4702Z" fill="#FFF7E8"/>
<path d="M49.4566 28.8781H49.875C51.9192 28.8781 52.732 27.5739 52.732 25.1679V24.5383C52.732 22.1323 51.9192 20.8281 49.875 20.8281H49.4566C47.4364 20.8281 46.6116 22.1323 46.6116 24.5383V25.1679C46.6116 27.5739 47.4364 28.8781 49.4566 28.8781ZM49.4925 28.0124C48.1895 28.0124 47.6397 27.1017 47.6397 25.2804V24.4259C47.6397 22.6045 48.1895 21.6938 49.4925 21.6938H49.8631C51.1661 21.6938 51.7159 22.6045 51.7159 24.4259V25.2804C51.7159 27.1017 51.1661 28.0124 49.8631 28.0124H49.4925Z" fill="#FFF7E8"/>
<path d="M39.2758 70.7476H40.3277C40.2799 69.6682 40.9613 68.9487 42.0371 68.9487C42.9935 68.9487 43.6987 69.5333 43.6987 70.4328C43.6987 71.1186 43.364 71.6583 42.4675 72.0855L41.1884 72.7039C40.3277 73.1086 39.1562 73.9743 39.1562 75.3797L39.1682 76.0655H44.7865V75.1998H40.1484C40.1484 74.4353 40.9254 73.8394 41.5948 73.5134L42.7902 72.94C44.0813 72.3441 44.7507 71.4784 44.7507 70.4553C44.7507 69.0274 43.6151 68.1055 42.0371 68.1055C40.3038 68.1055 39.2041 69.1398 39.2758 70.7476Z" fill="#FFF7E8"/>
<path d="M46.9385 70.7476H47.9904C47.9426 69.6682 48.624 68.9487 49.6998 68.9487C50.6561 68.9487 51.3614 69.5333 51.3614 70.4328C51.3614 71.1186 51.0267 71.6583 50.1302 72.0855L48.8511 72.7039C47.9904 73.1086 46.8189 73.9743 46.8189 75.3797L46.8309 76.0655H52.4492V75.1998H47.8111C47.8111 74.4353 48.5881 73.8394 49.2575 73.5134L50.4529 72.94C51.7439 72.3441 52.4134 71.4784 52.4134 70.4553C52.4134 69.0274 51.2777 68.1055 49.6998 68.1055C47.9665 68.1055 46.8667 69.1398 46.9385 70.7476Z" fill="#FFF7E8"/>
</svg>
